<svg xmlns="http://www.w3.org/2000/svg" xml:space="preserve" id="_x32_" viewBox="0 0 512 512"><style>.st0{fill:#000}</style><path d="m510.158 392.021-45.585-57.325V93.613c0-11.662-9.457-21.12-21.119-21.12H68.546c-11.662 0-21.111 9.458-21.111 21.12v241.082L1.841 392.021A8.43 8.43 0 0 0 0 397.285v25.373c0 9.311 7.548 16.849 16.85 16.849h478.3c9.302 0 16.85-7.538 16.85-16.849v-25.373a8.43 8.43 0 0 0-1.842-5.264M77.226 102.293h357.547v202.604H77.226zm226.896 317.176h-96.244v-25.478h96.244z" class="st0"/><path d="M291.552 186.314a35.5 35.5 0 0 0-10.417-25.14 35.48 35.48 0 0 0-25.14-10.409 35.45 35.45 0 0 0-25.131 10.409 35.54 35.54 0 0 0-10.417 25.14v12.508h-11.472v43.38c0 12.571 10.193 22.746 22.762 22.746h48.533c12.561 0 22.754-10.175 22.754-22.746v-43.38h-11.472zm-53.849 0c0-2.55.519-4.937 1.435-7.124a18.45 18.45 0 0 1 6.639-8.058c2.931-1.98 6.406-3.112 10.218-3.12 2.55 0 4.936.518 7.124 1.435a18.35 18.35 0 0 1 8.058 6.648c1.97 2.913 3.112 6.388 3.12 10.218v12.508h-36.594z" class="st0"/></svg>